<svg id="visual" viewBox="0 0 960 540" width="960" height="540" xmlns="http://www.w3.org/2000/svg" xmlns:xlink="http://www.w3.org/1999/xlink" version="1.1"><rect x="0" y="0" width="960" height="540" fill="#ffffff"></rect><defs><linearGradient id="grad1_0" x1="43.8%" y1="0%" x2="100%" y2="100%"><stop offset="14.444444444444446%" stop-color="#f4eeff" stop-opacity="1"></stop><stop offset="85.55555555555554%" stop-color="#f4eeff" stop-opacity="1"></stop></linearGradient></defs><defs><linearGradient id="grad1_1" x1="43.8%" y1="0%" x2="100%" y2="100%"><stop offset="14.444444444444446%" stop-color="#f4eeff" stop-opacity="1"></stop><stop offset="85.55555555555554%" stop-color="#f8f4ff" stop-opacity="1"></stop></linearGradient></defs><defs><linearGradient id="grad1_2" x1="43.8%" y1="0%" x2="100%" y2="100%"><stop offset="14.444444444444446%" stop-color="#fbf9ff" stop-opacity="1"></stop><stop offset="85.55555555555554%" stop-color="#f8f4ff" stop-opacity="1"></stop></linearGradient></defs><defs><linearGradient id="grad1_3" x1="43.8%" y1="0%" x2="100%" y2="100%"><stop offset="14.444444444444446%" stop-color="#fbf9ff" stop-opacity="1"></stop><stop offset="85.55555555555554%" stop-color="#ffffff" stop-opacity="1"></stop></linearGradient></defs><defs><linearGradient id="grad2_0" x1="0%" y1="0%" x2="56.3%" y2="100%"><stop offset="14.444444444444446%" stop-color="#f4eeff" stop-opacity="1"></stop><stop offset="85.55555555555554%" stop-color="#f4eeff" stop-opacity="1"></stop></linearGradient></defs><defs><linearGradient id="grad2_1" x1="0%" y1="0%" x2="56.3%" y2="100%"><stop offset="14.444444444444446%" stop-color="#f8f4ff" stop-opacity="1"></stop><stop offset="85.55555555555554%" stop-color="#f4eeff" stop-opacity="1"></stop></linearGradient></defs><defs><linearGradient id="grad2_2" x1="0%" y1="0%" x2="56.3%" y2="100%"><stop offset="14.444444444444446%" stop-color="#f8f4ff" stop-opacity="1"></stop><stop offset="85.55555555555554%" stop-color="#fbf9ff" stop-opacity="1"></stop></linearGradient></defs><defs><linearGradient id="grad2_3" x1="0%" y1="0%" x2="56.3%" y2="100%"><stop offset="14.444444444444446%" stop-color="#ffffff" stop-opacity="1"></stop><stop offset="85.55555555555554%" stop-color="#fbf9ff" stop-opacity="1"></stop></linearGradient></defs><g transform="translate(960, 0)"><path d="M0 378C-36.5 340.5 -73 302.9 -119.8 289.2C-166.5 275.4 -223.6 285.5 -265.2 265.2C-306.8 244.8 -333 193.9 -349.2 144.7C-365.5 95.4 -371.7 47.7 -378 0L0 0Z" fill="#fdfcff"></path><path d="M0 283.5C-27.4 255.3 -54.8 227.2 -89.8 216.9C-124.9 206.6 -167.7 214.2 -198.9 198.9C-230.1 183.6 -249.7 145.4 -261.9 108.5C-274.1 71.5 -278.8 35.8 -283.5 0L0 0Z" fill="#faf6ff"></path><path d="M0 189C-18.3 170.2 -36.5 151.5 -59.9 144.6C-83.3 137.7 -111.8 142.8 -132.6 132.6C-153.4 122.4 -166.5 97 -174.6 72.3C-182.7 47.7 -185.9 23.8 -189 0L0 0Z" fill="#f6f1ff"></path><path d="M0 94.5C-9.1 85.1 -18.3 75.7 -29.9 72.3C-41.6 68.9 -55.9 71.4 -66.3 66.3C-76.7 61.2 -83.2 48.5 -87.3 36.2C-91.4 23.8 -92.9 11.9 -94.5 0L0 0Z" fill="#f4eeff"></path></g><g transform="translate(0, 540)"><path d="M0 -378C45.6 -355.6 91.1 -333.2 127.8 -308.6C164.5 -284 192.3 -257.2 231.9 -231.9C271.5 -206.7 322.9 -183 349.2 -144.7C375.5 -106.3 376.8 -53.1 378 0L0 0Z" fill="#fdfcff"></path><path d="M0 -283.5C34.2 -266.7 68.3 -249.9 95.9 -231.4C123.4 -213 144.2 -192.9 173.9 -173.9C203.7 -155 242.2 -137.3 261.9 -108.5C281.7 -79.7 282.6 -39.8 283.5 0L0 0Z" fill="#faf6ff"></path><path d="M0 -189C22.8 -177.8 45.6 -166.6 63.9 -154.3C82.3 -142 96.2 -128.6 116 -116C135.8 -103.4 161.5 -91.5 174.6 -72.3C187.8 -53.1 188.4 -26.6 189 0L0 0Z" fill="#f6f1ff"></path><path d="M0 -94.5C11.4 -88.9 22.8 -83.3 32 -77.1C41.1 -71 48.1 -64.3 58 -58C67.9 -51.7 80.7 -45.8 87.3 -36.2C93.9 -26.6 94.2 -13.3 94.5 0L0 0Z" fill="#f4eeff"></path></g></svg>