<svg id="visual" viewBox="0 0 960 540" width="960" height="540" xmlns="http://www.w3.org/2000/svg" xmlns:xlink="http://www.w3.org/1999/xlink" version="1.1"><rect x="0" y="0" width="960" height="540" fill="#ffffff"></rect><defs><linearGradient id="grad1_0" x1="43.8%" y1="0%" x2="100%" y2="100%"><stop offset="14.444444444444446%" stop-color="#e6d8ff" stop-opacity="1"></stop><stop offset="85.55555555555554%" stop-color="#e6d8ff" stop-opacity="1"></stop></linearGradient></defs><defs><linearGradient id="grad1_1" x1="43.8%" y1="0%" x2="100%" y2="100%"><stop offset="14.444444444444446%" stop-color="#e6d8ff" stop-opacity="1"></stop><stop offset="85.55555555555554%" stop-color="#efe5ff" stop-opacity="1"></stop></linearGradient></defs><defs><linearGradient id="grad1_2" x1="43.8%" y1="0%" x2="100%" y2="100%"><stop offset="14.444444444444446%" stop-color="#f7f2ff" stop-opacity="1"></stop><stop offset="85.55555555555554%" stop-color="#efe5ff" stop-opacity="1"></stop></linearGradient></defs><defs><linearGradient id="grad1_3" x1="43.8%" y1="0%" x2="100%" y2="100%"><stop offset="14.444444444444446%" stop-color="#f7f2ff" stop-opacity="1"></stop><stop offset="85.55555555555554%" stop-color="#ffffff" stop-opacity="1"></stop></linearGradient></defs><defs><linearGradient id="grad2_0" x1="0%" y1="0%" x2="56.3%" y2="100%"><stop offset="14.444444444444446%" stop-color="#e6d8ff" stop-opacity="1"></stop><stop offset="85.55555555555554%" stop-color="#e6d8ff" stop-opacity="1"></stop></linearGradient></defs><defs><linearGradient id="grad2_1" x1="0%" y1="0%" x2="56.3%" y2="100%"><stop offset="14.444444444444446%" stop-color="#efe5ff" stop-opacity="1"></stop><stop offset="85.55555555555554%" stop-color="#e6d8ff" stop-opacity="1"></stop></linearGradient></defs><defs><linearGradient id="grad2_2" x1="0%" y1="0%" x2="56.3%" y2="100%"><stop offset="14.444444444444446%" stop-color="#efe5ff" stop-opacity="1"></stop><stop offset="85.55555555555554%" stop-color="#f7f2ff" stop-opacity="1"></stop></linearGradient></defs><defs><linearGradient id="grad2_3" x1="0%" y1="0%" x2="56.3%" y2="100%"><stop offset="14.444444444444446%" stop-color="#ffffff" stop-opacity="1"></stop><stop offset="85.55555555555554%" stop-color="#f7f2ff" stop-opacity="1"></stop></linearGradient></defs><g transform="translate(960, 0)"><path d="M0 378C-50.9 369 -101.8 360.1 -138.5 334.4C-175.3 308.8 -197.8 266.5 -234.8 234.8C-271.7 203.1 -323 182 -349.2 144.7C-375.5 107.3 -376.7 53.7 -378 0L0 0Z" fill="#fbf8ff"></path><path d="M0 283.5C-38.2 276.8 -76.3 270.1 -103.9 250.8C-131.4 231.6 -148.4 199.8 -176.1 176.1C-203.8 152.3 -242.2 136.5 -261.9 108.5C-281.6 80.5 -282.6 40.2 -283.5 0L0 0Z" fill="#f3ebff"></path><path d="M0 189C-25.4 184.5 -50.9 180 -69.3 167.2C-87.6 154.4 -98.9 133.2 -117.4 117.4C-135.8 101.5 -161.5 91 -174.6 72.3C-187.7 53.7 -188.4 26.8 -189 0L0 0Z" fill="#eadeff"></path><path d="M0 94.5C-12.7 92.3 -25.4 90 -34.6 83.6C-43.8 77.2 -49.5 66.6 -58.7 58.7C-67.9 50.8 -80.7 45.5 -87.3 36.2C-93.9 26.8 -94.2 13.4 -94.5 0L0 0Z" fill="#e6d8ff"></path></g><g transform="translate(0, 540)"><path d="M0 -378C37.5 -339.7 75 -301.4 117.5 -283.6C160 -265.9 207.4 -268.6 249.6 -249.6C291.8 -230.6 328.7 -189.9 349.2 -144.7C369.7 -99.4 373.9 -49.7 378 0L0 0Z" fill="#fbf8ff"></path><path d="M0 -283.5C28.1 -254.8 56.3 -226.1 88.1 -212.7C120 -199.4 155.6 -201.5 187.2 -187.2C218.8 -173 246.5 -142.4 261.9 -108.5C277.3 -74.6 280.4 -37.3 283.5 0L0 0Z" fill="#f3ebff"></path><path d="M0 -189C18.8 -169.9 37.5 -150.7 58.7 -141.8C80 -132.9 103.7 -134.3 124.8 -124.8C145.9 -115.3 164.4 -94.9 174.6 -72.3C184.9 -49.7 186.9 -24.9 189 0L0 0Z" fill="#eadeff"></path><path d="M0 -94.5C9.4 -84.9 18.8 -75.4 29.4 -70.9C40 -66.5 51.9 -67.2 62.4 -62.4C72.9 -57.7 82.2 -47.5 87.3 -36.2C92.4 -24.9 93.5 -12.4 94.5 0L0 0Z" fill="#e6d8ff"></path></g></svg>