<svg width="1467" height="1589" viewBox="0 0 1467 1589" fill="none" xmlns="http://www.w3.org/2000/svg">
<rect x="-200" y="595.166" width="952" height="1405" rx="164" transform="rotate(-45 -200 595.166)" fill="#F4EEFF"/>
<mask id="mask0_25_1" style="mask-type:alpha" maskUnits="userSpaceOnUse" x="-133" y="-11" width="1532" height="1532">
<rect x="-200" y="595.166" width="952" height="1405" rx="164" transform="rotate(-45 -200 595.166)" fill="#F4EEFF"/>
</mask>
<g mask="url(#mask0_25_1)">
<path d="M230.265 574.455V829H290.173V671.773H292.286L353.436 827.384H391.717L452.868 672.643H454.981V829H514.889V574.455H438.699L374.068 732.054H371.085L306.455 574.455H230.265ZM550.263 829H611.041V638.091H550.263V829ZM580.714 615.843C597.99 615.843 611.911 602.793 611.911 586.759C611.911 570.726 597.99 557.8 580.714 557.8C563.562 557.8 549.517 570.726 549.517 586.759C549.517 602.793 563.562 615.843 580.714 615.843ZM735.842 832.604C789.535 832.604 822.844 801.408 824.46 754.178H767.66C765.423 774.437 753.242 785.499 736.587 785.499C715.21 785.499 701.289 767.477 701.289 733.545C701.289 699.863 715.334 681.841 736.587 681.841C753.988 681.841 765.298 693.648 767.66 713.162H824.46C823.093 666.18 788.789 635.605 735.717 635.605C675.685 635.605 639.393 675.626 639.393 734.167C639.393 792.459 675.437 832.604 735.842 832.604ZM941.68 832.604C1001.71 832.604 1038.13 792.956 1038.13 734.167C1038.13 675.254 1001.71 635.605 941.68 635.605C881.648 635.605 845.231 675.254 845.231 734.167C845.231 792.956 881.648 832.604 941.68 832.604ZM942.052 786.741C919.556 786.741 907.127 765.364 907.127 733.794C907.127 702.1 919.556 680.598 942.052 680.598C963.803 680.598 976.232 702.1 976.232 733.794C976.232 765.364 963.803 786.741 942.052 786.741ZM230.265 1233H291.788V1145.87H323.358L369.842 1233H436.959L384.136 1136.05C412.101 1123.38 428.259 1098.39 428.259 1063.22C428.259 1010.89 392.587 978.455 335.414 978.455H230.265V1233ZM291.788 1097.4V1028.05H322.115C349.707 1028.05 364.498 1039.61 364.498 1063.22C364.498 1086.84 349.707 1097.4 322.115 1097.4H291.788ZM459.003 1233H519.781V1042.09H459.003V1233ZM489.454 1019.84C506.73 1019.84 520.651 1006.79 520.651 990.759C520.651 974.726 506.73 961.8 489.454 961.8C472.302 961.8 458.257 974.726 458.257 990.759C458.257 1006.79 472.302 1019.84 489.454 1019.84ZM616.244 1124.12C616.368 1102.37 629.046 1089.45 648.311 1089.45C667.575 1089.45 679.01 1102.12 678.886 1123.25V1233H739.664V1111.32C739.788 1068.32 713.563 1039.61 673.417 1039.61C645.203 1039.61 623.825 1053.9 615.374 1077.14H613.261V1042.09H555.466V1233H616.244V1124.12ZM882.051 1042.09H847.623V996.352H786.846V1042.09H761.615V1086.84H786.846V1179.68C786.473 1218.33 811.579 1237.72 854.459 1235.73C869.125 1234.99 879.69 1232.01 885.532 1230.27L876.334 1186.39C873.724 1187.01 867.634 1188.26 863.035 1188.26C853.216 1188.26 847.623 1184.28 847.623 1172.97V1086.84H882.051V1042.09ZM963.879 1236.23C990.477 1236.23 1008.87 1225.92 1019.31 1206.4H1020.8V1233H1077.98V1103.24C1077.98 1062.85 1042.06 1039.61 993.46 1039.61C942.129 1039.61 913.045 1065.46 908.197 1100.26L964.252 1102.25C966.862 1090.07 976.93 1082.61 992.963 1082.61C1007.88 1082.61 1017.32 1089.82 1017.32 1102.62V1103.24C1017.32 1114.92 1004.65 1117.41 972.082 1120.27C933.428 1123.5 901.113 1137.79 901.113 1180.05C901.113 1217.84 927.338 1236.23 963.879 1236.23ZM982.647 1196.46C968.602 1196.46 958.659 1189.75 958.659 1177.07C958.659 1164.76 968.354 1157.31 985.63 1154.7C996.94 1153.08 1010.86 1150.6 1017.7 1146.99V1165.14C1017.7 1183.78 1002.04 1196.46 982.647 1196.46ZM1172.92 978.455H1112.14V1233H1172.92V978.455ZM1262.42 1236.23C1289.02 1236.23 1307.41 1225.92 1317.85 1206.4H1319.34V1233H1376.52V1103.24C1376.52 1062.85 1340.6 1039.61 1292 1039.61C1240.67 1039.61 1211.59 1065.46 1206.74 1100.26L1262.79 1102.25C1265.4 1090.07 1275.47 1082.61 1291.5 1082.61C1306.42 1082.61 1315.86 1089.82 1315.86 1102.62V1103.24C1315.86 1114.92 1303.19 1117.41 1270.62 1120.27C1231.97 1123.5 1199.65 1137.79 1199.65 1180.05C1199.65 1217.84 1225.88 1236.23 1262.42 1236.23ZM1281.19 1196.46C1267.14 1196.46 1257.2 1189.75 1257.2 1177.07C1257.2 1164.76 1266.89 1157.31 1284.17 1154.7C1295.48 1153.08 1309.4 1150.6 1316.24 1146.99V1165.14C1316.24 1183.78 1300.58 1196.46 1281.19 1196.46Z" fill="white" fill-opacity="0.2"/>
</g>
</svg>