<svg width="732" height="507" viewBox="0 0 732 507" fill="none" xmlns="http://www.w3.org/2000/svg">
<path d="M471.645 491.645C491.171 511.171 522.829 511.171 542.355 491.645L559.517 474.483L253.171 168.138L200.655 220.655L471.645 491.645Z" fill="#424874"/>
<rect width="75" height="428.976" rx="37.5" transform="matrix(0.707107 -0.707107 -0.707107 -0.707107 608.332 341.365)" fill="#A6B1E1"/>
<rect x="90" y="120" width="582" height="305" rx="60" fill="white"/>
<path d="M177.284 360V290.182H206.125C211.352 290.182 215.864 291.125 219.659 293.011C223.477 294.875 226.42 297.557 228.489 301.057C230.557 304.534 231.591 308.659 231.591 313.432C231.591 318.273 230.534 322.386 228.42 325.773C226.307 329.136 223.307 331.705 219.42 333.477C215.534 335.227 210.932 336.102 205.614 336.102H187.375V322.807H202.477C205.023 322.807 207.148 322.477 208.852 321.818C210.58 321.136 211.886 320.114 212.773 318.75C213.659 317.364 214.102 315.591 214.102 313.432C214.102 311.273 213.659 309.489 212.773 308.08C211.886 306.648 210.58 305.58 208.852 304.875C207.125 304.148 205 303.784 202.477 303.784H194.159V360H177.284ZM216.591 328.091L233.977 360H215.568L198.523 328.091H216.591ZM237.847 360V307.636H254.517V360H237.847ZM246.199 301.534C243.858 301.534 241.847 300.761 240.165 299.216C238.483 297.648 237.642 295.761 237.642 293.557C237.642 291.375 238.483 289.511 240.165 287.966C241.847 286.398 243.858 285.614 246.199 285.614C248.563 285.614 250.574 286.398 252.233 287.966C253.915 289.511 254.756 291.375 254.756 293.557C254.756 295.761 253.915 297.648 252.233 299.216C250.574 300.761 248.563 301.534 246.199 301.534ZM278.798 330.136V360H262.128V307.636H277.98V317.25H278.56C279.719 314.045 281.696 311.534 284.491 309.716C287.287 307.875 290.616 306.955 294.48 306.955C298.162 306.955 301.355 307.784 304.06 309.443C306.787 311.08 308.901 313.375 310.401 316.33C311.923 319.261 312.673 322.693 312.651 326.625V360H295.98V329.898C296.003 326.989 295.264 324.716 293.764 323.08C292.287 321.443 290.23 320.625 287.594 320.625C285.844 320.625 284.298 321.011 282.957 321.784C281.639 322.534 280.616 323.614 279.889 325.023C279.185 326.432 278.821 328.136 278.798 330.136ZM349.528 307.636V319.909H316.494V307.636H349.528ZM323.415 295.091H340.085V343.534C340.085 344.557 340.244 345.386 340.562 346.023C340.903 346.636 341.392 347.08 342.028 347.352C342.665 347.602 343.426 347.727 344.312 347.727C344.949 347.727 345.619 347.67 346.324 347.557C347.051 347.42 347.597 347.307 347.96 347.216L350.483 359.25C349.688 359.477 348.563 359.761 347.108 360.102C345.676 360.443 343.96 360.659 341.96 360.75C338.051 360.932 334.699 360.477 331.903 359.386C329.131 358.273 327.006 356.545 325.528 354.205C324.074 351.864 323.369 348.92 323.415 345.375V295.091ZM369.795 360.886C366.455 360.886 363.489 360.33 360.898 359.216C358.33 358.08 356.295 356.375 354.795 354.102C353.318 351.807 352.58 348.932 352.58 345.477C352.58 342.568 353.091 340.114 354.114 338.114C355.136 336.114 356.545 334.489 358.341 333.239C360.136 331.989 362.205 331.045 364.545 330.409C366.886 329.75 369.386 329.307 372.045 329.08C375.023 328.807 377.42 328.523 379.239 328.227C381.057 327.909 382.375 327.466 383.193 326.898C384.034 326.307 384.455 325.477 384.455 324.409V324.239C384.455 322.489 383.852 321.136 382.648 320.182C381.443 319.227 379.818 318.75 377.773 318.75C375.568 318.75 373.795 319.227 372.455 320.182C371.114 321.136 370.261 322.455 369.898 324.136L354.523 323.591C354.977 320.409 356.148 317.568 358.034 315.068C359.943 312.545 362.557 310.568 365.875 309.136C369.216 307.682 373.227 306.955 377.909 306.955C381.25 306.955 384.33 307.352 387.148 308.148C389.966 308.92 392.42 310.057 394.511 311.557C396.602 313.034 398.216 314.852 399.352 317.011C400.511 319.17 401.091 321.636 401.091 324.409V360H385.409V352.705H385C384.068 354.477 382.875 355.977 381.42 357.205C379.989 358.432 378.295 359.352 376.341 359.966C374.409 360.58 372.227 360.886 369.795 360.886ZM374.943 349.977C376.739 349.977 378.352 349.614 379.784 348.886C381.239 348.159 382.398 347.159 383.261 345.886C384.125 344.591 384.557 343.091 384.557 341.386V336.409C384.08 336.659 383.5 336.886 382.818 337.091C382.159 337.295 381.432 337.489 380.636 337.67C379.841 337.852 379.023 338.011 378.182 338.148C377.341 338.284 376.534 338.409 375.761 338.523C374.193 338.773 372.852 339.159 371.739 339.682C370.648 340.205 369.807 340.886 369.216 341.727C368.648 342.545 368.364 343.523 368.364 344.659C368.364 346.386 368.977 347.705 370.205 348.614C371.455 349.523 373.034 349.977 374.943 349.977ZM424.955 290.182V360H408.284V290.182H424.955ZM447.327 360.886C443.986 360.886 441.02 360.33 438.429 359.216C435.861 358.08 433.827 356.375 432.327 354.102C430.849 351.807 430.111 348.932 430.111 345.477C430.111 342.568 430.622 340.114 431.645 338.114C432.668 336.114 434.077 334.489 435.872 333.239C437.668 331.989 439.736 331.045 442.077 330.409C444.418 329.75 446.918 329.307 449.577 329.08C452.554 328.807 454.952 328.523 456.77 328.227C458.588 327.909 459.906 327.466 460.724 326.898C461.565 326.307 461.986 325.477 461.986 324.409V324.239C461.986 322.489 461.384 321.136 460.179 320.182C458.974 319.227 457.349 318.75 455.304 318.75C453.099 318.75 451.327 319.227 449.986 320.182C448.645 321.136 447.793 322.455 447.429 324.136L432.054 323.591C432.509 320.409 433.679 317.568 435.565 315.068C437.474 312.545 440.088 310.568 443.406 309.136C446.747 307.682 450.759 306.955 455.44 306.955C458.781 306.955 461.861 307.352 464.679 308.148C467.497 308.92 469.952 310.057 472.043 311.557C474.134 313.034 475.747 314.852 476.884 317.011C478.043 319.17 478.622 321.636 478.622 324.409V360H462.94V352.705H462.531C461.599 354.477 460.406 355.977 458.952 357.205C457.52 358.432 455.827 359.352 453.872 359.966C451.94 360.58 449.759 360.886 447.327 360.886ZM452.474 349.977C454.27 349.977 455.884 349.614 457.315 348.886C458.77 348.159 459.929 347.159 460.793 345.886C461.656 344.591 462.088 343.091 462.088 341.386V336.409C461.611 336.659 461.031 336.886 460.349 337.091C459.69 337.295 458.963 337.489 458.168 337.67C457.372 337.852 456.554 338.011 455.713 338.148C454.872 338.284 454.065 338.409 453.293 338.523C451.724 338.773 450.384 339.159 449.27 339.682C448.179 340.205 447.338 340.886 446.747 341.727C446.179 342.545 445.895 343.523 445.895 344.659C445.895 346.386 446.509 347.705 447.736 348.614C448.986 349.523 450.565 349.977 452.474 349.977ZM495.19 360.989C492.736 360.989 490.634 360.125 488.884 358.398C487.156 356.67 486.304 354.58 486.327 352.125C486.304 349.716 487.156 347.659 488.884 345.955C490.634 344.227 492.736 343.364 495.19 343.364C497.509 343.364 499.554 344.227 501.327 345.955C503.122 347.659 504.031 349.716 504.054 352.125C504.031 353.761 503.599 355.25 502.759 356.591C501.94 357.932 500.861 359 499.52 359.795C498.202 360.591 496.759 360.989 495.19 360.989Z" fill="#2D3436"/>
<path d="M177.284 186.182H198.182L215.909 229.409H216.727L234.455 186.182H255.352V256H238.92V213.114H238.341L221.568 255.557H211.068L194.295 212.875H193.716V256H177.284V186.182ZM262.878 256V203.636H279.548V256H262.878ZM271.23 197.534C268.889 197.534 266.878 196.761 265.196 195.216C263.514 193.648 262.673 191.761 262.673 189.557C262.673 187.375 263.514 185.511 265.196 183.966C266.878 182.398 268.889 181.614 271.23 181.614C273.594 181.614 275.605 182.398 277.264 183.966C278.946 185.511 279.787 187.375 279.787 189.557C279.787 191.761 278.946 193.648 277.264 195.216C275.605 196.761 273.594 197.534 271.23 197.534ZM311.602 256.989C306.08 256.989 301.341 255.852 297.386 253.58C293.455 251.307 290.432 248.148 288.318 244.102C286.205 240.034 285.148 235.33 285.148 229.989C285.148 224.625 286.205 219.92 288.318 215.875C290.455 211.807 293.489 208.636 297.42 206.364C301.375 204.091 306.091 202.955 311.568 202.955C316.409 202.955 320.625 203.83 324.216 205.58C327.83 207.33 330.648 209.807 332.67 213.011C334.716 216.193 335.795 219.932 335.909 224.227H320.33C320.011 221.545 319.102 219.443 317.602 217.92C316.125 216.398 314.193 215.636 311.807 215.636C309.875 215.636 308.182 216.182 306.727 217.273C305.273 218.341 304.136 219.932 303.318 222.045C302.523 224.136 302.125 226.727 302.125 229.818C302.125 232.909 302.523 235.523 303.318 237.659C304.136 239.773 305.273 241.375 306.727 242.466C308.182 243.534 309.875 244.068 311.807 244.068C313.352 244.068 314.716 243.739 315.898 243.08C317.102 242.42 318.091 241.455 318.864 240.182C319.636 238.886 320.125 237.318 320.33 235.477H335.909C335.75 239.795 334.67 243.568 332.67 246.795C330.693 250.023 327.909 252.534 324.318 254.33C320.75 256.102 316.511 256.989 311.602 256.989ZM365.884 256.989C360.384 256.989 355.656 255.864 351.702 253.614C347.77 251.341 344.736 248.182 342.599 244.136C340.486 240.068 339.429 235.352 339.429 229.989C339.429 224.602 340.486 219.886 342.599 215.841C344.736 211.773 347.77 208.614 351.702 206.364C355.656 204.091 360.384 202.955 365.884 202.955C371.384 202.955 376.099 204.091 380.031 206.364C383.986 208.614 387.02 211.773 389.134 215.841C391.27 219.886 392.338 224.602 392.338 229.989C392.338 235.352 391.27 240.068 389.134 244.136C387.02 248.182 383.986 251.341 380.031 253.614C376.099 255.864 371.384 256.989 365.884 256.989ZM365.986 244.409C367.986 244.409 369.679 243.795 371.065 242.568C372.452 241.341 373.509 239.636 374.236 237.455C374.986 235.273 375.361 232.75 375.361 229.886C375.361 226.977 374.986 224.432 374.236 222.25C373.509 220.068 372.452 218.364 371.065 217.136C369.679 215.909 367.986 215.295 365.986 215.295C363.918 215.295 362.168 215.909 360.736 217.136C359.327 218.364 358.247 220.068 357.497 222.25C356.77 224.432 356.406 226.977 356.406 229.886C356.406 232.75 356.77 235.273 357.497 237.455C358.247 239.636 359.327 241.341 360.736 242.568C362.168 243.795 363.918 244.409 365.986 244.409Z" fill="#2D3436"/>
<circle cx="79.5" cy="404.5" r="79.5" fill="#DCD6F7"/>
<circle cx="550.5" cy="126.5" r="43.5" fill="#424874"/>
<path d="M625.086 409.549C639.731 394.905 639.731 371.161 625.086 356.516C610.441 341.872 586.698 341.872 572.053 356.516L454 474.57L471.677 492.247C491.204 511.774 522.862 511.774 542.388 492.247L625.086 409.549Z" fill="#A6B1E1"/>
</svg>
