<svg width="301" height="301" viewBox="0 0 301 301" fill="none" xmlns="http://www.w3.org/2000/svg">
<circle r="7.89474" transform="matrix(1 0 0 -1 8.02657 292.237)" fill="#A6B1E1"/>
<ellipse rx="7.89474" ry="7.89474" transform="matrix(1 0 0 -1 39.6057 292.237)" fill="#A6B1E1"/>
<ellipse rx="7.89474" ry="7.89474" transform="matrix(1 0 0 -1 71.1843 292.237)" fill="#A6B1E1"/>
<ellipse rx="7.89474" ry="7.89474" transform="matrix(1 0 0 -1 102.763 292.237)" fill="#A6B1E1"/>
<ellipse rx="7.89474" ry="7.89474" transform="matrix(1 0 0 -1 134.342 292.237)" fill="#A6B1E1"/>
<ellipse rx="7.89474" ry="7.89474" transform="matrix(1 0 0 -1 165.921 292.237)" fill="#A6B1E1"/>
<ellipse rx="7.89474" ry="7.89474" transform="matrix(1 0 0 -1 197.5 292.237)" fill="#A6B1E1"/>
<ellipse rx="7.89474" ry="7.89474" transform="matrix(1 0 0 -1 229.079 292.237)" fill="#A6B1E1"/>
<ellipse rx="7.89474" ry="7.89474" transform="matrix(1 0 0 -1 260.658 292.237)" fill="#A6B1E1"/>
<ellipse rx="7.89473" ry="7.89474" transform="matrix(1 0 0 -1 292.237 292.237)" fill="#A6B1E1"/>
<ellipse rx="7.89474" ry="7.89474" transform="matrix(1 0 0 -1 8.02657 260.658)" fill="#A6B1E1"/>
<circle r="7.89474" transform="matrix(1 0 0 -1 39.6057 260.658)" fill="#A6B1E1"/>
<ellipse rx="7.89474" ry="7.89474" transform="matrix(1 0 0 -1 71.1843 260.658)" fill="#A6B1E1"/>
<ellipse rx="7.89474" ry="7.89474" transform="matrix(1 0 0 -1 102.763 260.658)" fill="#A6B1E1"/>
<ellipse rx="7.89474" ry="7.89474" transform="matrix(1 0 0 -1 134.342 260.658)" fill="#A6B1E1"/>
<ellipse rx="7.89474" ry="7.89474" transform="matrix(1 0 0 -1 165.921 260.658)" fill="#A6B1E1"/>
<ellipse rx="7.89474" ry="7.89474" transform="matrix(1 0 0 -1 197.5 260.658)" fill="#A6B1E1"/>
<ellipse rx="7.89474" ry="7.89474" transform="matrix(1 0 0 -1 229.079 260.658)" fill="#A6B1E1"/>
<ellipse rx="7.89474" ry="7.89474" transform="matrix(1 0 0 -1 260.658 260.658)" fill="#A6B1E1"/>
<ellipse rx="7.89473" ry="7.89474" transform="matrix(1 0 0 -1 292.237 260.658)" fill="#A6B1E1"/>
<ellipse rx="7.89474" ry="7.89474" transform="matrix(1 0 0 -1 8.02657 229.079)" fill="#A6B1E1"/>
<ellipse rx="7.89474" ry="7.89474" transform="matrix(1 0 0 -1 39.6057 229.079)" fill="#A6B1E1"/>
<circle r="7.89474" transform="matrix(1 0 0 -1 71.1843 229.079)" fill="#A6B1E1"/>
<ellipse rx="7.89474" ry="7.89474" transform="matrix(1 0 0 -1 102.763 229.079)" fill="#A6B1E1"/>
<ellipse rx="7.89474" ry="7.89474" transform="matrix(1 0 0 -1 134.342 229.079)" fill="#A6B1E1"/>
<ellipse rx="7.89474" ry="7.89474" transform="matrix(1 0 0 -1 165.921 229.079)" fill="#A6B1E1"/>
<ellipse rx="7.89474" ry="7.89474" transform="matrix(1 0 0 -1 197.5 229.079)" fill="#A6B1E1"/>
<ellipse rx="7.89474" ry="7.89474" transform="matrix(1 0 0 -1 229.079 229.079)" fill="#A6B1E1"/>
<ellipse rx="7.89474" ry="7.89474" transform="matrix(1 0 0 -1 260.658 229.079)" fill="#A6B1E1"/>
<ellipse rx="7.89473" ry="7.89474" transform="matrix(1 0 0 -1 292.237 229.079)" fill="#A6B1E1"/>
<ellipse rx="7.89474" ry="7.89474" transform="matrix(1 0 0 -1 8.02657 197.501)" fill="#A6B1E1"/>
<ellipse rx="7.89474" ry="7.89474" transform="matrix(1 0 0 -1 39.6057 197.501)" fill="#A6B1E1"/>
<ellipse rx="7.89474" ry="7.89474" transform="matrix(1 0 0 -1 71.1843 197.501)" fill="#A6B1E1"/>
<circle r="7.89474" transform="matrix(1 0 0 -1 102.763 197.501)" fill="#A6B1E1"/>
<ellipse rx="7.89474" ry="7.89474" transform="matrix(1 0 0 -1 134.342 197.501)" fill="#A6B1E1"/>
<circle r="7.89474" transform="matrix(1 0 0 -1 165.921 197.501)" fill="#A6B1E1"/>
<ellipse rx="7.89474" ry="7.89474" transform="matrix(1 0 0 -1 197.5 197.501)" fill="#A6B1E1"/>
<ellipse rx="7.89474" ry="7.89474" transform="matrix(1 0 0 -1 229.079 197.501)" fill="#A6B1E1"/>
<circle r="7.89474" transform="matrix(1 0 0 -1 260.658 197.501)" fill="#A6B1E1"/>
<ellipse rx="7.89473" ry="7.89474" transform="matrix(1 0 0 -1 292.237 197.501)" fill="#A6B1E1"/>
<ellipse rx="7.89474" ry="7.89474" transform="matrix(1 0 0 -1 8.02657 165.922)" fill="#A6B1E1"/>
<ellipse rx="7.89474" ry="7.89474" transform="matrix(1 0 0 -1 39.6057 165.922)" fill="#A6B1E1"/>
<ellipse rx="7.89474" ry="7.89474" transform="matrix(1 0 0 -1 71.1843 165.922)" fill="#A6B1E1"/>
<ellipse rx="7.89474" ry="7.89474" transform="matrix(1 0 0 -1 102.763 165.922)" fill="#A6B1E1"/>
<circle r="7.89474" transform="matrix(1 0 0 -1 134.342 165.922)" fill="#A6B1E1"/>
<ellipse rx="7.89474" ry="7.89474" transform="matrix(1 0 0 -1 165.921 165.922)" fill="#A6B1E1"/>
<ellipse rx="7.89474" ry="7.89474" transform="matrix(1 0 0 -1 197.5 165.922)" fill="#A6B1E1"/>
<ellipse rx="7.89474" ry="7.89474" transform="matrix(1 0 0 -1 229.079 165.922)" fill="#A6B1E1"/>
<ellipse rx="7.89474" ry="7.89474" transform="matrix(1 0 0 -1 260.658 165.922)" fill="#A6B1E1"/>
<ellipse rx="7.89473" ry="7.89474" transform="matrix(1 0 0 -1 292.237 165.922)" fill="#A6B1E1"/>
<ellipse rx="7.89474" ry="7.89474" transform="matrix(1 0 0 -1 8.02657 134.343)" fill="#A6B1E1"/>
<ellipse rx="7.89474" ry="7.89474" transform="matrix(1 0 0 -1 39.6057 134.343)" fill="#A6B1E1"/>
<ellipse rx="7.89474" ry="7.89474" transform="matrix(1 0 0 -1 71.1843 134.343)" fill="#A6B1E1"/>
<circle r="7.89474" transform="matrix(1 0 0 -1 102.763 134.343)" fill="#A6B1E1"/>
<ellipse rx="7.89474" ry="7.89474" transform="matrix(1 0 0 -1 134.342 134.343)" fill="#A6B1E1"/>
<circle r="7.89474" transform="matrix(1 0 0 -1 165.921 134.343)" fill="#A6B1E1"/>
<ellipse rx="7.89474" ry="7.89474" transform="matrix(1 0 0 -1 197.5 134.343)" fill="#A6B1E1"/>
<ellipse rx="7.89474" ry="7.89474" transform="matrix(1 0 0 -1 229.079 134.343)" fill="#A6B1E1"/>
<circle r="7.89474" transform="matrix(1 0 0 -1 260.658 134.343)" fill="#A6B1E1"/>
<ellipse rx="7.89473" ry="7.89474" transform="matrix(1 0 0 -1 292.237 134.343)" fill="#A6B1E1"/>
<ellipse rx="7.89474" ry="7.89474" transform="matrix(1 0 0 -1 8.02657 102.764)" fill="#A6B1E1"/>
<ellipse rx="7.89474" ry="7.89474" transform="matrix(1 0 0 -1 39.6057 102.764)" fill="#A6B1E1"/>
<ellipse rx="7.89474" ry="7.89474" transform="matrix(1 0 0 -1 71.1843 102.764)" fill="#A6B1E1"/>
<ellipse rx="7.89474" ry="7.89474" transform="matrix(1 0 0 -1 102.763 102.764)" fill="#A6B1E1"/>
<ellipse rx="7.89474" ry="7.89474" transform="matrix(1 0 0 -1 134.342 102.764)" fill="#A6B1E1"/>
<ellipse rx="7.89474" ry="7.89474" transform="matrix(1 0 0 -1 165.921 102.764)" fill="#A6B1E1"/>
<circle r="7.89474" transform="matrix(1 0 0 -1 197.5 102.764)" fill="#A6B1E1"/>
<circle r="7.89474" transform="matrix(1 0 0 -1 229.079 102.764)" fill="#A6B1E1"/>
<ellipse rx="7.89474" ry="7.89474" transform="matrix(1 0 0 -1 260.658 102.764)" fill="#A6B1E1"/>
<ellipse rx="7.89473" ry="7.89474" transform="matrix(1 0 0 -1 292.237 102.764)" fill="#A6B1E1"/>
<ellipse rx="7.89474" ry="7.89474" transform="matrix(1 0 0 -1 8.02657 71.1846)" fill="#A6B1E1"/>
<ellipse rx="7.89474" ry="7.89474" transform="matrix(1 0 0 -1 39.6057 71.1846)" fill="#A6B1E1"/>
<ellipse rx="7.89474" ry="7.89474" transform="matrix(1 0 0 -1 71.1843 71.1846)" fill="#A6B1E1"/>
<ellipse rx="7.89474" ry="7.89474" transform="matrix(1 0 0 -1 102.763 71.1846)" fill="#A6B1E1"/>
<ellipse rx="7.89474" ry="7.89474" transform="matrix(1 0 0 -1 134.342 71.1846)" fill="#A6B1E1"/>
<ellipse rx="7.89474" ry="7.89474" transform="matrix(1 0 0 -1 165.921 71.1846)" fill="#A6B1E1"/>
<circle r="7.89474" transform="matrix(1 0 0 -1 197.5 71.1846)" fill="#A6B1E1"/>
<circle r="7.89474" transform="matrix(1 0 0 -1 229.079 71.1846)" fill="#A6B1E1"/>
<ellipse rx="7.89474" ry="7.89474" transform="matrix(1 0 0 -1 260.658 71.1846)" fill="#A6B1E1"/>
<ellipse rx="7.89473" ry="7.89474" transform="matrix(1 0 0 -1 292.237 71.1846)" fill="#A6B1E1"/>
<ellipse rx="7.89474" ry="7.89474" transform="matrix(1 0 0 -1 8.02657 39.6058)" fill="#A6B1E1"/>
<ellipse rx="7.89474" ry="7.89474" transform="matrix(1 0 0 -1 39.6057 39.6058)" fill="#A6B1E1"/>
<ellipse rx="7.89474" ry="7.89474" transform="matrix(1 0 0 -1 71.1843 39.6058)" fill="#A6B1E1"/>
<circle r="7.89474" transform="matrix(1 0 0 -1 102.763 39.6058)" fill="#A6B1E1"/>
<ellipse rx="7.89474" ry="7.89474" transform="matrix(1 0 0 -1 134.342 39.6058)" fill="#A6B1E1"/>
<circle r="7.89474" transform="matrix(1 0 0 -1 165.921 39.6058)" fill="#A6B1E1"/>
<ellipse rx="7.89474" ry="7.89474" transform="matrix(1 0 0 -1 197.5 39.6058)" fill="#A6B1E1"/>
<ellipse rx="7.89474" ry="7.89474" transform="matrix(1 0 0 -1 229.079 39.6058)" fill="#A6B1E1"/>
<circle r="7.89474" transform="matrix(1 0 0 -1 260.658 39.6058)" fill="#A6B1E1"/>
<ellipse rx="7.89473" ry="7.89474" transform="matrix(1 0 0 -1 292.237 39.6058)" fill="#A6B1E1"/>
<ellipse rx="7.89474" ry="7.89473" transform="matrix(1 0 0 -1 8.02657 8.0269)" fill="#A6B1E1"/>
<ellipse rx="7.89474" ry="7.89473" transform="matrix(1 0 0 -1 39.6057 8.0269)" fill="#A6B1E1"/>
<ellipse rx="7.89474" ry="7.89473" transform="matrix(1 0 0 -1 71.1843 8.0269)" fill="#A6B1E1"/>
<ellipse rx="7.89474" ry="7.89473" transform="matrix(1 0 0 -1 102.763 8.0269)" fill="#A6B1E1"/>
<ellipse rx="7.89474" ry="7.89473" transform="matrix(1 0 0 -1 134.342 8.0269)" fill="#A6B1E1"/>
<ellipse rx="7.89474" ry="7.89473" transform="matrix(1 0 0 -1 165.921 8.0269)" fill="#A6B1E1"/>
<ellipse rx="7.89474" ry="7.89473" transform="matrix(1 0 0 -1 197.5 8.0269)" fill="#A6B1E1"/>
<ellipse rx="7.89474" ry="7.89473" transform="matrix(1 0 0 -1 229.079 8.0269)" fill="#A6B1E1"/>
<ellipse rx="7.89474" ry="7.89473" transform="matrix(1 0 0 -1 260.658 8.0269)" fill="#A6B1E1"/>
<circle r="7.89473" transform="matrix(1 0 0 -1 292.237 8.0269)" fill="#A6B1E1"/>
</svg>
